<svg version="1.2" xmlns="http://www.w3.org/2000/svg" viewBox="-55.99999999999999 0 887.0000000000001 624" width="888" height="624">
	<style>
		.s0 { opacity: 1;fill: #303030 } 
		.s1 { fill: #fefefe } 
		.s2 { opacity: 1;fill: #ff0000 } 
		.s3 { fill: #1262a2 } 
		.s4 { opacity: 1;fill: #284395 } 
	</style>
	<g id="Background">
		<path id="Path 1" fill-rule="evenodd" class="s0" d="m211 530.04c9.92-0.62 16.95-1.42 21.74-2.91 3.85-1.2 0.2-0.1 12.76-5.38 3.41-1.43 8.47-4.71 11.5-6.77 3.02-2.06 8-6.38 11.05-9.61 3.06-3.23 6.93-7.9 8.62-10.37 1.68-2.48 4.31-6.98 5.84-10 1.53-3.03 3.78-8.43 5.01-12 1.22-3.58 2.8-10.1 3.51-14.5 0.82-5.12 1.05-11.6 0.65-18-0.35-5.5-1.35-12.7-2.21-16m-27.87-42.75c-3.53-2.89-9.49-6.91-13.25-8.93-3.77-2.03-10.9-4.88-15.85-6.33-5.55-1.63-12.65-2.85-18.5-3.19-5.23-0.3-12.76-0.04-16.75 0.58-3.99 0.61-10.74 2.23-15 3.59-4.26 1.37-10.61 4.18-14.11 6.25-3.5 2.08-9.24 6.14-12.75 9.03-3.51 2.89-8.44 7.84-10.94 11-2.5 3.16-6.79 10.25-9.52 15.75-2.74 5.5-5.98 13.95-7.21 18.77l-2.22 8.77-31.5-0.04c-0.39-16.28-0.5-22.24-0.5-23.75v-2.75l33.72-1c6.17-11.63 10.28-18.11 13.12-21.92 2.84-3.8 7.86-9.36 11.16-12.34 3.81-3.45 9.65-7.19 16-10.28 5.5-2.67 12.92-5.66 16.5-6.64 5.14-1.42 10.28-1.8 24.5-1.8 14.24 0 19.36 0.38 24.5 1.8 3.57 0.99 10.3 3.68 14.94 5.99 5.56 2.76 10.82 6.41 15.39 10.69m-0.79 148m267.09-224.36c-0.59 0.58-2.34-21.34-2.56-23.01-0.2-1.56 0-0.36-0.15-1.25l-0.82-1.52c-6.93-7.52-5.86-6.27-6.17-6.66-0.31-0.38-3.79-8.8-7.72-18.7-3.94-9.9-8.09-21.6-9.21-26-1.13-4.4-2.73-13.63-3.56-20.5-0.83-6.88-1.72-13.96-1.97-15.75l-0.47-3.25c-0.31-1.64-2.4-0.75-8.42-1.53-12.9-1.69-99.32 1.84-101.83 2.89-1.79 0.75-4.52 2.66-6.07 4.25-1.71 1.75-3.56 5.46-4.7 9.39-1.04 3.57-4.2 14.6-7.04 24.5-2.83 9.9-7.24 25.42-9.8 34.5l-4.64 16.5c0 68.74 0.18 72.63 1.96 79 1.08 3.85 3.6 9.47 5.58 12.5 1.99 3.02 5.61 7.27 8.04 9.44 2.43 2.17 7.12 5.18 10.42 6.69 3.31 1.52 9.48 3.23 13.75 3.81 4.26 0.58 18.44 1.04 31.5 1.03 13.06-0.02 28.25-0.44 33.75-0.94 5.87-0.52 11.86-1.7 14.5-2.85 2.47-1.08 6.41-3.36 8.75-5.07 2.34-1.71 7.51-7.5 11.5-12.87 3.99-5.36 11.52-16.17 16.75-24l9.5-14.26m-227.12 19.52c-2.13-3.85-5.56-9.14-7.62-11.75-2.67-3.37-5.71-5.69-10.49-8l-6.72-3.25c-82.98-0.51-103.91-0.23-109.05 0.47-4.4 0.59-10.25 2.11-13 3.38-2.75 1.26-6.73 3.84-8.85 5.72-2.11 1.89-5.25 6.35-6.97 9.93-3.1 6.44-3.13 6.68-3.76 27-0.37 12.01 0.35 23.52-1.91 24.5-1.99 0.87-1.66 4.56-2.14 5.25-0.48 0.69-1.32 1.02-1.87 0.75-0.64-0.32-1-16.09-1.01-44.25-0.01-43.43 0.01-43.78 2.25-48.25q2.26-4.5 5.76-6.17c2.85-1.37 11.38-2.06 46-3.75 23.37-1.14 50.6-2.53 60.5-3.09 9.9-0.56 34.2-1.91 54-3 19.8-1.09 37.91-1.99 40.25-1.99 4.21 0 4.27-0.05 6.23-5.25 1.08-2.89 6.51-18.53 12.05-34.75 5.55-16.23 13.77-40.86 18.28-54.73l8.19-25.24 217.5-0.03-0.5-11.5-225-0.49c-5.81-11.63-7.32-15.35-7.11-15.76 0.22-0.41 3.93-1.12 8.25-1.57 4.32-0.45 24.73-3.13 45.36-5.96l37.5-5.15 350.12-1.44 0.38-11.63-334-0.5c-55.41 7.08-80.28 10.18-91 11.46-10.73 1.27-22.09 2.59-25.25 2.93l-5.75 0.61c0-6.59-0.79-10.04-1.75-11.93-0.96-1.88-3.02-4.36-4.57-5.5-2.61-1.91-4.32-2.08-22.5-2.24-10.82-0.09-20.58 0.07-21.68 0.36-1.1 0.29-2.58 1.04-3.29 1.67-1.02 0.9-1.29 9.39-1.25 39.89l0.04 38.75c5.33 3.95 6.91 4.07 28.75 4.03 22.23-0.03 23.29-0.12 24.25-2.03 0.58-1.16 1-11.83 1-25.5 0-14.67 0.38-23.69 1-24 0.55-0.28 2.87 3.21 5.16 7.75 2.28 4.54 5.71 10.72 7.61 13.75l3.45 5.5c-2.78 10.07-7.5 24.92-12.29 39.5-4.79 14.57-11.9 35.5-15.8 46.5-3.9 11-7.43 20.27-7.86 20.59-0.42 0.32-24.4 1.79-53.27 3.27-28.88 1.47-71.4 3.59-94.5 4.71-23.1 1.12-44.25 2.45-47 2.96-2.75 0.52-6.49 1.96-8.32 3.21-1.82 1.26-4.86 4.19-6.75 6.52-1.88 2.33-3.86 5.93-4.38 7.99-0.52 2.06-1.08 24.11-1.25 49l-0.3 45.25h-15.5v-32c-5.97-5.97-6.11-6-17-6-6.05 0-11.9 0.45-13 1-1.1 0.55-2.68 2.35-3.5 4-1.27 2.54-1.5 10.41-1.5 51.75 0.01 46.96 0.08 48.87 2 52 1.1 1.79 3.57 3.92 5.5 4.75 2.22 0.95 6.71 1.5 12.25 1.51 6.77 0 9.3-0.39 11.19-1.75 1.34-0.97 3.03-3.22 3.75-5.01 0.72-1.79 1.31-7.06 1.31-11.75v-8.5l30.5-0.05c1.18 5.08 1.51 7.9 1.49 9.55-0.01 1.65 1.11 6.94 2.49 11.75 1.39 4.81 4.09 11.9 6.02 15.75 5.58 12.61 12.19 10.8-143.11 10.8 0 1.71-0.01 1.65-0.01 6.21 162.85 0 157.46 2.98 159.47 4.8 2.44 2.22 0.45 0.42 2.17 1.96"/>
		<path id="Path 2" fill-rule="evenodd" class="s1" d="m300.02 139.22c-0.01 10.06 0.31 23.79 0.73 30.54l0.75 12.25 30.5-0.01c-0.11-39.91-0.45-53.53-0.82-56l-0.68-4.5-30.45-0.55zm241.48 53.45c-3.3 0.16-6.58 0.86-7.29 1.56-1.05 1.02-1.34 25.35-1.5 125.01l-0.21 123.75h46.5v-251c-24.41 0.3-34.2 0.52-37.5 0.68zm-122.5 1.05c-24.81 0.21-27.67 0.4-29.26 2-0.96 0.98-3.34 7.17-5.27 13.77-1.93 6.6-6.9 24.38-11.03 39.5l-7.52 27.5c0.61 67.02 0.76 69.32 2.78 74.5 1.26 3.23 4.36 7.92 7.48 11.32 4 4.38 6.68 6.32 10.82 7.82 5.08 1.85 8.22 2.01 41.5 2.15l36 0.14c9.71-4.44 12.3-6.65 16.58-11.98 3.07-3.82 8.99-11.9 13.15-17.95 4.16-6.05 11.66-17.75 16.68-26 6.23-10.25 9.11-15.95 9.09-18-0.02-1.65-4.95-14.47-10.97-28.5-6.01-14.02-12.03-28.42-13.39-32-1.35-3.57-3.37-10.1-4.49-14.5-1.11-4.4-2.74-12.72-3.61-18.5-0.87-5.77-1.68-10.55-1.81-10.61-0.13-0.07-9.01-0.29-19.73-0.5-10.73-0.21-31.88-0.28-47-0.16zm-250 140.19c-10.24 0.39-16.35 1.05-18 1.95-1.38 0.76-3.98 2.78-5.79 4.5-2.01 1.91-3.87 5.09-4.76 8.13-0.81 2.75-1.47 8.72-1.46 13.25l0.01 8.25c12.01-9.55 19.55-14.26 24.5-16.62 4.95-2.37 12.6-5.24 17-6.39 4.4-1.14 12.95-2.42 19-2.84 6.05-0.41 15.05-0.44 20-0.06 4.95 0.39 12.49 1.65 16.75 2.81 4.26 1.16 11.46 3.96 16 6.24 4.54 2.27 10.72 6.04 13.75 8.37 3.02 2.33 7.55 6.43 10.05 9.12 2.51 2.68 6.84 8.25 9.62 12.37 2.79 4.13 10.35 16.95 16.81 28.5 6.46 11.55 13.16 23.37 14.88 26.26l3.14 5.26 15.5-0.02c-2.87-4.26-11.27-18.77-20.5-35-9.24-16.22-21.26-37.6-26.71-47.5-5.46-9.9-10.9-19.05-12.11-20.34-1.2-1.29-3.98-3.32-6.18-4.5-3.9-2.1-5.02-2.16-45-2.24-22.55-0.05-47.98 0.18-56.5 0.5zm-98.76 83.83l0.26 45.75h11c-0.39-65.87-0.5-86.46-0.5-88.25v-3.25h-11.02zm124.26-41.31c-3.3 0.75-8.93 2.58-12.5 4.07-3.58 1.49-9.43 4.63-13 6.98-3.58 2.35-8.92 6.92-11.88 10.15-2.95 3.22-7.06 8.79-9.12 12.36-2.07 3.58-5 9.88-6.53 14-2.31 6.27-2.84 9.56-3.22 20-0.26 7.07 0.01 14.9 0.63 18 0.6 3.03 2.11 8.01 3.35 11.07 1.25 3.07 4.07 8.65 6.27 12.4 2.46 4.2 6.88 9.48 11.5 13.75 5.19 4.79 10.27 8.3 16.5 11.38 4.95 2.45 12.15 5.11 16 5.91 3.85 0.8 11.05 1.46 16 1.46 4.95 0 12.15-0.67 16-1.48 3.85-0.82 10.6-3.23 15-5.38 4.4-2.14 11.07-6.53 14.82-9.75 3.76-3.22 9.14-9.23 11.97-13.36 2.83-4.12 6.36-10.42 7.84-14 1.49-3.57 3.42-9.98 4.29-14.25 0.87-4.26 1.58-10.45 1.58-13.75 0-3.3-0.7-9.48-1.56-13.75-0.89-4.43-3.43-11.6-5.94-16.75-2.41-4.95-6.54-11.56-9.19-14.69-2.65-3.13-7.29-7.71-10.31-10.16-3.03-2.45-8.65-6.04-12.5-7.96-3.85-1.93-9.7-4.24-13-5.15-3.3-0.9-10.73-1.83-16.5-2.06-6.74-0.26-12.65 0.08-16.5 0.96zm146.47 50.81c-0.02 0.14 2 3.74 4.5 8l4.53 7.75h171v-16c-139.5 0-180.02 0.12-180.03 0.25z"/>
		<path id="Path 3" fill-rule="evenodd" class="s2" d="m194.5 397.85c-3.3 0.94-8.25 3.02-11 4.63-2.75 1.61-6.76 4.53-8.92 6.48-2.16 1.94-5.66 6.24-7.78 9.54-2.12 3.3-4.74 8.7-5.82 12-1.08 3.3-2.25 8.7-2.6 12-0.36 3.39-0.11 9.05 0.58 13 0.67 3.85 2.45 9.7 3.97 13 1.52 3.3 4.54 8.25 6.71 11 2.18 2.75 6.86 6.92 10.41 9.27 3.55 2.35 9.37 5.22 12.95 6.37 4.65 1.49 9.07 2.09 15.5 2.07 6.85-0.01 10.67-0.59 16-2.41 3.85-1.32 9.66-4.18 12.92-6.35 3.25-2.17 7.3-5.57 9-7.56 1.69-1.98 4.51-6.25 6.27-9.5 1.75-3.24 3.89-8.59 4.75-11.89 0.86-3.3 1.57-8.93 1.57-12.5 0-3.58-0.69-9.2-1.54-12.5-0.84-3.3-2.76-8.46-4.25-11.46-1.5-3.01-5.24-8.18-8.32-11.5-3.11-3.35-8.24-7.46-11.5-9.23-3.25-1.75-8.6-3.89-11.9-4.75-3.3-0.86-9.38-1.54-13.5-1.49-4.13 0.04-10.2 0.84-13.5 1.78z"/>
		<path id="Shape 2" fill-rule="evenodd" class="s3" d=""/>
		<path id="Shape 3" fill-rule="evenodd" class="s3" d=""/>
		<path id="Shape 4" fill-rule="evenodd" class="s3" d=""/>
		<path id="Shape 5" fill-rule="evenodd" class="s3" d=""/>
		<path id="Path 4" fill-rule="evenodd" class="s1" d="m196.44 409.72c-2.78 0.98-7.01 3.13-9.39 4.78-2.39 1.65-5.64 4.57-7.23 6.5-1.59 1.92-4.01 5.75-5.37 8.5-1.36 2.75-2.95 7.92-3.53 11.5-0.75 4.62-0.74 8.24 0.03 12.5 0.6 3.3 2.1 8.02 3.32 10.48 1.23 2.47 4.3 6.75 6.82 9.5 2.96 3.23 6.88 6.09 11 8.02 5.85 2.74 7.33 3 16.91 3 9.32 0 11.12-0.3 16-2.66 3.15-1.52 7.64-4.96 10.5-8.03 2.75-2.95 6.07-7.6 7.38-10.34 1.31-2.73 2.85-7.67 3.44-10.97 0.78-4.4 0.75-7.73-0.12-12.5-0.66-3.58-2.43-8.92-3.95-11.87-1.51-2.95-4.89-7.34-7.5-9.75-2.61-2.41-7.34-5.59-10.5-7.08-4.52-2.12-7.57-2.76-14.25-3.02-6.26-0.24-9.83 0.14-13.56 1.44z"/>
		<path id="Path 5" fill-rule="evenodd" class="s4" d="m200.97 417.87c-1.39 0.44-4.32 1.73-6.5 2.84-2.18 1.12-5.51 3.78-7.4 5.91-1.88 2.13-4.35 5.9-5.48 8.38-1.47 3.24-2.05 6.6-2.07 12-0.02 6.15 0.48 8.54 2.73 13.25 1.81 3.79 4.37 7.04 7.5 9.55 2.61 2.08 6.55 4.43 8.75 5.22 2.2 0.78 6.92 1.39 10.5 1.36 4.72-0.04 7.87-0.71 11.5-2.45 2.75-1.33 6.72-4.21 8.82-6.42 2.1-2.2 4.8-6.04 6-8.51 1.69-3.49 2.18-6.29 2.16-12.5-0.02-6.7-0.45-8.82-2.66-13-1.45-2.75-4.14-6.41-5.98-8.14-1.84-1.73-5.37-4.16-7.84-5.4-2.92-1.47-6.79-2.37-11-2.58-3.58-0.18-7.64 0.04-9.03 0.49z"/>
		<path id="Path 6" fill-rule="evenodd" class="s1" d="m201.07 430.9c-2.43 1.02-5.27 3.14-6.3 4.72-1.04 1.59-2.36 4.45-2.95 6.38-0.58 1.92-0.8 5.07-0.47 7 0.32 1.92 1.64 5.07 2.92 7 1.28 1.92 3.88 4.53 5.78 5.78 2.43 1.6 4.92 2.28 8.45 2.28 3.53 0 6.02-0.68 8.45-2.28 1.9-1.25 4.5-3.86 5.78-5.78 1.28-1.93 2.6-5.08 2.92-7 0.33-1.93 0.11-5.08-0.47-7-0.59-1.93-2.1-4.82-3.37-6.43-1.27-1.61-4.11-3.74-6.31-4.73-2.2-0.99-5.35-1.8-7-1.8-1.65 0-4.99 0.84-7.43 1.86z"/>
		<path id="Shape 1" fill-rule="evenodd" class="s3" d="m968.91 312"/>
	</g>
</svg>