<svg version="1.2" xmlns="http://www.w3.org/2000/svg" viewBox="0 0 24 24" width="24" height="24">
	<style>
		.s0 { fill: #1d1b20 } 
		.s1 { fill: none;stroke: #000000;stroke-miterlimit:100;stroke-width: 0 } 
		.s2 { fill: none;stroke: #000000;stroke-miterlimit:100 } 
	</style>
	<g id="Layer 1">
		<path class="s0" d="m18.88 7.73l-0.4-0.5 0.43 0.48-3.86 4.64-5.05 1.52 1.25 0.27 0.61 0.09-8.63-1.76 2.04-1.6 4.28 6.46 10.01-13.26"/>
		<path id="Shape 1" fill-rule="evenodd" class="s1" d="m12 22.35c-6.36 0-11.5-4.63-11.5-10.35 0-2.92 3.74-4.16 3.5-7.44-0.23-3.28 3.31-2.2 5.36-2.63 0.85-0.18 1.78-0.56 2.64-0.28 9.51 3.12 11.5 4.63 11.5 10.35 0 2.19-3.45 2.86-2.05 5.89 1.41 3.03-1.57 3.42-2.35 4.01-2 1.52-4.27 0.45-7.1 0.45z"/>
		<path id="Shape 2" fill-rule="evenodd" class="s2" d=""/>
	</g>
</svg>