<svg width="50" height="48" viewBox="0 0 50 48" fill="none" xmlns="http://www.w3.org/2000/svg">
<path d="M49.1425 16.9167C43.5 14.4583 43.5 14.4583 38.4049 13.4583L25 -3.8147e-06L3.12918 12.8083C1.75168 13.6542 0.833342 15.1767 0.833342 16.9167L0 28.4583C0 31.1167 3.00837 45.9167 5.66671 45.9167L25 41.0833L32.4758 47.2917C35.1341 47.2917 49.1425 45.1167 49.1425 42.4583V16.9167ZM44.3092 16.9167V16.9408L21.5 32.4083L25 28.4583L8.49997 19.9583L10.5 25.6046L5.66668 16.9167L25 5.60666L44.3092 16.9167ZM5.66668 41.0833V22.5717L20 30.4583L25 36.9583L33.5 23.6915L44.3092 22.6442L44.3333 41.0833H5.66668Z" fill="#1C1B1F"/>
</svg>
